<svg id="Layer_1" data-name="Layer 1" xmlns="http://www.w3.org/2000/svg" xmlns:xlink="http://www.w3.org/1999/xlink" viewBox="0 0 560 288"><defs><style>.cls-1{fill:#ccc;stroke-width:0.75px;}.cls-1,.cls-10,.cls-11,.cls-15,.cls-16,.cls-3,.cls-4,.cls-5,.cls-6,.cls-7,.cls-8,.cls-9{stroke:#000;}.cls-1,.cls-10,.cls-11,.cls-16,.cls-3,.cls-4,.cls-5,.cls-6,.cls-7,.cls-8,.cls-9{stroke-miterlimit:10;}.cls-2{font-size:48.04px;letter-spacing:0.07em;}.cls-17,.cls-2{font-family:CourierNewPS-BoldMT, Courier New;font-weight:700;}.cls-10,.cls-11,.cls-3,.cls-4,.cls-5,.cls-6,.cls-7,.cls-8,.cls-9{stroke-linecap:round;stroke-width:3px;}.cls-3{fill:url(#Gold_Dust);}.cls-4{fill:url(#Gold_Dust-2);}.cls-5{fill:url(#Gold_Dust-3);}.cls-6{fill:url(#Gold_Dust-4);}.cls-7{fill:url(#Gold_Dust-5);}.cls-8{fill:url(#Gold_Dust-6);}.cls-9{fill:url(#Gold_Dust-7);}.cls-10{fill:url(#Gold_Dust-8);}.cls-11{fill:url(#Gold_Dust-9);}.cls-12{font-size:44px;}.cls-12,.cls-14{font-family:Helvetica;}.cls-13{letter-spacing:-0.04em;}.cls-14{font-size:32.24px;letter-spacing:-0.05em;}.cls-15{fill:none;stroke-linejoin:round;}.cls-15,.cls-16{stroke-width:5px;}.cls-17{font-size:47.96px;letter-spacing:0.07em;}</style><linearGradient id="Gold_Dust" x1="237.8" y1="190.17" x2="237.8" y2="190.17" gradientUnits="userSpaceOnUse"><stop offset="0" stop-color="#ff7300"/><stop offset="0.18" stop-color="#f97c01"/><stop offset="0.47" stop-color="#ea9602"/><stop offset="0.55" stop-color="#e59e03"/><stop offset="0.87" stop-color="#e5c500"/><stop offset="0.99" stop-color="#bf6f00"/></linearGradient><linearGradient id="Gold_Dust-2" x1="269.26" y1="190.17" x2="269.26" y2="190.17" xlink:href="#Gold_Dust"/><linearGradient id="Gold_Dust-3" x1="300.72" y1="190.17" x2="300.72" y2="190.17" xlink:href="#Gold_Dust"/><linearGradient id="Gold_Dust-4" x1="332.17" y1="190.17" x2="332.17" y2="190.17" xlink:href="#Gold_Dust"/><linearGradient id="Gold_Dust-5" x1="363.63" y1="190.17" x2="363.63" y2="190.17" xlink:href="#Gold_Dust"/><linearGradient id="Gold_Dust-6" x1="395.09" y1="190.17" x2="395.09" y2="190.17" xlink:href="#Gold_Dust"/><linearGradient id="Gold_Dust-7" x1="426.54" y1="190.17" x2="426.54" y2="190.17" xlink:href="#Gold_Dust"/><linearGradient id="Gold_Dust-8" x1="458" y1="190.17" x2="458" y2="190.17" xlink:href="#Gold_Dust"/><linearGradient id="Gold_Dust-9" x1="489.46" y1="190.17" x2="489.46" y2="190.17" xlink:href="#Gold_Dust"/></defs><rect class="cls-1" x="97.33" y="213.55" width="219.51" height="38.94"/><text class="cls-2" transform="translate(221.42 245.55)">CAGGUAAGU</text><line class="cls-3" x1="237.8" y1="170.45" x2="237.8" y2="209.89"/><line class="cls-4" x1="269.26" y1="170.45" x2="269.26" y2="209.89"/><line class="cls-5" x1="300.72" y1="170.45" x2="300.72" y2="209.89"/><line class="cls-6" x1="332.17" y1="170.45" x2="332.17" y2="209.89"/><line class="cls-7" x1="363.63" y1="170.45" x2="363.63" y2="209.89"/><line class="cls-8" x1="395.09" y1="170.45" x2="395.09" y2="209.89"/><line class="cls-9" x1="426.54" y1="170.45" x2="426.54" y2="209.89"/><line class="cls-10" x1="458" y1="170.45" x2="458" y2="209.89"/><line class="cls-11" x1="489.46" y1="170.45" x2="489.46" y2="209.89"/><text class="cls-12" transform="translate(59.1 159.01)">3<tspan class="cls-13" x="24.47" y="0">’</tspan></text><text class="cls-12" transform="translate(59.1 251.8)">5<tspan class="cls-13" x="24.47" y="0">’</tspan></text><text class="cls-14" transform="translate(221.43 278.19)">-3</text><text class="cls-14" transform="translate(285 278.19)">-1</text><text class="cls-14" transform="translate(312.68 278.19)">+1</text><text class="cls-14" transform="translate(473.05 278.19)">+6</text><text class="cls-12" transform="translate(108.87 54.29)">U1</text><path class="cls-15" d="M214.2,143.93V116.61h24.51a14,14,0,1,0-.05-9.43h-25l0-48.64v-.8a14.05,14.05,0,1,0-9.46-.16l.46,49.6H180.72l-.07,0a13.53,13.53,0,0,0-13.36-9.92,14.47,14.47,0,0,0-.06,28.92,13.5,13.5,0,0,0,13.32-9.9l0-.08h23.55l0,26.91H131.07s0-31.7,0-39.61v-1.77l0,0a12,12,0,0,0,6.95-11,11.5,11.5,0,1,0-23,0A12,12,0,0,0,122.79,102h0v41.06H102.55"/><line class="cls-16" x1="507.62" y1="233.02" x2="523.2" y2="233.02"/><line class="cls-16" x1="507.62" y1="150.68" x2="523.2" y2="150.68"/><text class="cls-17" transform="translate(221.28 165.6)">G</text><text class="cls-17" transform="translate(253.01 165.6)">U</text><text class="cls-17" transform="translate(284.75 165.6)">C</text><text class="cls-17" transform="translate(316.48 165.6)">C</text><text class="cls-17" transform="translate(349.22 165.6)">A</text><text class="cls-17" transform="translate(381.14 165.6)">Ψ</text><text class="cls-17" transform="translate(413.07 165.6)">Ψ</text><text class="cls-17" transform="translate(444.8 165.6)">C</text><text class="cls-17" transform="translate(477.54 165.6)">A</text></svg>